<svg fill="none" xmlns="http://www.w3.org/2000/svg" viewBox="0 0 163 59">
  <g clip-path="url(#a)">
    <path d="M88.8 17.4c-9.7 0-14.8 7.8-14.8 15.5 0 8.9 6.2 15.3 14.8 15.3 8.6 0 14.9-6.4 14.9-15.3 0-9-6.3-15.5-14.9-15.5Zm6.3 15.4c0 3.7-2.1 7.5-6.3 7.5-4 0-6.1-3.8-6.1-7.5 0-3.6 2.1-7.5 6.1-7.5 4.1 0 6.3 3.9 6.3 7.5ZM161.8 19c-.7-1-1.9-1.6-3.1-1.6h-.9c-1.7 0-3.1 1.1-3.6 2.7l-4.6 14.2c-.1.4-.2.8-.4 1.2-.1-.4-.2-.8-.4-1.2L144 20c-.5-1.6-2-2.6-3.6-2.6h-.8c-1.3 0-2.4.6-3.1 1.6-.7 1-.9 2.3-.5 3.5l7.6 21.3c.4 1.2 1 2 1.7 2.6l-.1.3c-.8 2.1-2.6 3.7-4.4 3.7h-1.6c-2.7 0-2.7 2.6-2.7 3.9 0 1.3 0 3.9 2.7 3.9h1.7c5.8 0 10.1-3.4 12.4-9.8l9-26c.4-1.1.2-2.4-.5-3.4ZM112.6 8.8h-1.2c-2.1 0-3.8 1.7-3.8 3.8v31.6c0 2.1 1.7 3.8 3.8 3.8h1.2c2.1 0 3.8-1.7 3.8-3.8V12.6c.1-2.1-1.6-3.8-3.8-3.8ZM127 8.8h-1.2c-2.1 0-3.8 1.7-3.8 3.8v31.6c0 2.1 1.7 3.8 3.8 3.8h1.2c2.1 0 3.8-1.7 3.8-3.8V12.6c0-2.1-1.7-3.8-3.8-3.8Z" fill="#1A1A1A"/>
    <path d="M6.2 48.9c-.8 0-1.7-.2-2.5-.5C.6 47-.8 43.3.6 40.2L11.3 16c1-2.2 3.2-3.6 5.6-3.7 2.4 0 4.6 1.3 5.7 3.5L34.2 40c1.5 3.1.2 6.8-2.9 8.3-3.1 1.5-6.8.2-8.3-2.9l-5.8-12.1-5.3 11.9c-1.1 2.3-3.3 3.7-5.7 3.7Z" fill="#4A6EEF"/>
    <path d="M28.6 48.9c-.9 0-1.8-.2-2.6-.6-3.1-1.4-4.5-5.1-3-8.2L39.8 3.6C40.8 1.4 43 0 45.3 0c2.4 0 4.6 1.3 5.6 3.4l18.2 36.5c1.5 3.1.3 6.8-2.8 8.3-3.1 1.5-6.8.3-8.3-2.8l-12.5-25-11.3 24.9c-1 2.3-3.3 3.6-5.6 3.6Z" fill="#1A1A1A"/>
  </g>
  <defs>
    <clipPath id="a">
      <path fill="#fff" d="M0 0h162.5v58.2H0z"/>
    </clipPath>
  </defs>
</svg>
